<?xml version="1.0" encoding="utf-8"?>
<!-- Svg Vector Icons : http://www.onlinewebfonts.com/icon -->
<!DOCTYPE svg PUBLIC "-//W3C//DTD SVG 1.1//EN" "http://www.w3.org/Graphics/SVG/1.1/DTD/svg11.dtd">
<svg version="1.1" xmlns="http://www.w3.org/2000/svg" xmlns:xlink="http://www.w3.org/1999/xlink" x="0px" y="0px" viewBox="0 0 1000 1000" enable-background="new 0 0 1000 1000" xml:space="preserve">
<metadata> Svg Vector Icons : http://www.onlinewebfonts.com/icon </metadata>
<g><path d="M990,174c0,37.2-30.8,67.4-68.7,67.4H78.7C40.7,241.4,10,211.2,10,174l0,0c0-37.2,30.8-67.4,68.7-67.4h842.6C959.2,106.6,990,136.8,990,174L990,174z"/><path d="M990,826c0,37.2-30.8,67.4-68.7,67.4H78.7C40.7,893.4,10,863.2,10,826l0,0c0-37.2,30.8-67.4,68.7-67.4h842.6C959.2,758.6,990,788.8,990,826L990,826z"/><path d="M990,504c0,37.2-30.8,67.4-68.7,67.4H78.7C40.7,571.4,10,541.2,10,504l0,0c0-37.2,30.7-67.4,68.7-67.4h842.6C959.2,436.6,990,466.8,990,504L990,504z"/></g>
</svg>