<?xml version="1.0" encoding="utf-8"?>
<!-- Svg Vector Icons : http://www.onlinewebfonts.com/icon -->
<!DOCTYPE svg PUBLIC "-//W3C//DTD SVG 1.1//EN" "http://www.w3.org/Graphics/SVG/1.1/DTD/svg11.dtd">
<svg version="1.1" xmlns="http://www.w3.org/2000/svg" xmlns:xlink="http://www.w3.org/1999/xlink" x="0px" y="0px" viewBox="0 0 1000 1000" enable-background="new 0 0 1000 1000" xml:space="preserve">
<metadata> Svg Vector Icons : http://www.onlinewebfonts.com/icon </metadata>
<g><path d="M921.9,990H78.1C40.5,990,10,959.5,10,922V78.1C10,40.5,40.5,10,78.1,10h843.9c37.6,0,68.1,30.5,68.1,68.1V922C990,959.5,959.5,990,921.9,990L921.9,990z M290.5,284.5c-12.6-2.5-35.2-4.3-35.2-4.3s-9-22-15.6-34.1c3.1,5.7-3.5-12.5-10.1-0.3c-6.6,12.1-16.2,34.5-16.2,34.5s-21.9,1.8-34.5,4.4c4.9-1-11.6-0.5-3.2,9.3c8.5,10,22.8,26.7,22.8,26.7s-1.9,22.2-3.1,35.9c0.3-3.5-4.3,12.3,9.3,5.5c11-5.5,30.1-15.1,30.1-15.1s18.8,9.3,30.7,15.2c-3.9-1.9,10,8.4,8.7-5.9c-1.2-13.8-3.2-35.8-3.2-35.8s13.7-16.1,22.2-26.2C289.6,298.5,303,287,290.5,284.5L290.5,284.5z M290.5,475.1c-12.6-2.5-35.2-4.3-35.2-4.3s-9-22-15.6-34.1c3.1,5.7-3.5-12.5-10.1-0.3c-6.6,12.2-16.2,34.5-16.2,34.5s-21.9,1.8-34.5,4.4c4.9-1-11.6-0.5-3.2,9.3c8.5,10,22.8,26.7,22.8,26.7s-1.9,22.2-3.1,35.9c0.3-3.5-4.3,12.3,9.3,5.5c11-5.5,30.1-15.1,30.1-15.1s18.8,9.3,30.7,15.2c-3.9-1.9,10,8.4,8.7-5.9c-1.2-13.7-3.2-35.8-3.2-35.8s13.7-16.1,22.2-26.2C289.6,489,303,477.6,290.5,475.1L290.5,475.1z M290.5,665.6c-12.6-2.5-35.2-4.3-35.2-4.3s-9-22-15.6-34.1c3.1,5.7-3.5-12.5-10.1-0.3c-6.6,12.1-16.2,34.5-16.2,34.5s-21.9,1.8-34.5,4.4c4.9-1-11.6-0.5-3.2,9.3c8.5,10,22.8,26.7,22.8,26.7s-1.9,22.2-3.1,35.9c0.3-3.5-4.3,12.3,9.3,5.5c11-5.5,30.1-15.1,30.1-15.1s18.8,9.3,30.7,15.3c-3.9-1.9,10,8.4,8.7-5.9c-1.2-13.8-3.2-35.8-3.2-35.8s13.7-16.1,22.2-26.2C289.6,679.6,303,668.1,290.5,665.6L290.5,665.6z M799.4,282.2H404.7c-15,0-27.2,12.2-27.2,27.2c0,15,12.2,27.2,27.2,27.2h394.7c15,0,27.2-12.2,27.2-27.2C826.7,294.4,814.5,282.2,799.4,282.2L799.4,282.2z M799.4,472.8H404.7c-15,0-27.2,12.2-27.2,27.2c0,15,12.2,27.2,27.2,27.2h394.7c15,0,27.2-12.2,27.2-27.2C826.7,485,814.5,472.8,799.4,472.8L799.4,472.8z M799.4,663.3H404.7c-15,0-27.2,12.2-27.2,27.2c0,15,12.2,27.2,27.2,27.2h394.7c15,0,27.2-12.2,27.2-27.2C826.7,675.5,814.5,663.3,799.4,663.3L799.4,663.3z"/></g>
</svg>