<?xml version="1.0" encoding="utf-8"?>
<!-- Svg Vector Icons : http://www.onlinewebfonts.com/icon -->
<!DOCTYPE svg PUBLIC "-//W3C//DTD SVG 1.1//EN" "http://www.w3.org/Graphics/SVG/1.1/DTD/svg11.dtd">
<svg version="1.1" xmlns="http://www.w3.org/2000/svg" xmlns:xlink="http://www.w3.org/1999/xlink" x="0px" y="0px" viewBox="0 0 1000 1000" enable-background="new 0 0 1000 1000" xml:space="preserve">
<metadata> Svg Vector Icons : http://www.onlinewebfonts.com/icon </metadata>
<g><path d="M253,381.4c-8.4-9.7-7.2-24.4,2.6-32.8c9.7-8.4,24.5-7.2,32.8,2.6l211,246.7l212.4-244c8.5-9.7,23.2-10.7,32.9-2.3c9.7,8.5,10.7,23.3,2.2,33L516.8,649h0c-0.7,0.9-1.5,1.6-2.4,2.4c-9.7,8.4-24.4,7.2-32.8-2.6L253,381.4z"/><path d="M500,10c135.3,0,257.9,54.8,346.5,143.5C935.2,242.1,990,364.7,990,500c0,135.2-54.9,257.8-143.6,346.4l0,0.1C757.8,935.2,635.3,990,500,990c-135.2,0-257.6-54.8-346.4-143.5l0-0.1h-0.1v-0.1C64.9,757.7,10,635.2,10,500c0-135.3,54.9-257.9,143.5-346.5l1.5-1.3C243.6,64.3,365.5,10,500,10L500,10z M813.5,186.6C733.3,106.4,622.4,56.7,500,56.7c-121.9,0-232.3,49.2-312.3,128.7l-1.1,1.2C106.3,266.8,56.7,377.6,56.7,500c0,122.5,49.6,233.3,129.7,313.4l0.1,0.1c80.1,80.1,190.9,129.8,313.4,129.8c122.4,0,233.3-49.7,313.5-129.9l0,0.1l0-0.1c80.1-80.1,129.7-191,129.7-313.4C943.3,377.6,893.7,266.8,813.5,186.6z"/></g>
</svg>